<?xml version="1.0" encoding="UTF-8" standalone="no"?>
<svg
   xmlns:dc="http://purl.org/dc/elements/1.1/"
   xmlns:cc="http://creativecommons.org/ns#"
   xmlns:rdf="http://www.w3.org/1999/02/22-rdf-syntax-ns#"
   xmlns:svg="http://www.w3.org/2000/svg"
   xmlns="http://www.w3.org/2000/svg"
   id="svg6481"
   version="1.1"
   viewBox="0 0 40.926838 31.657675"
   height="31.657675mm"
   width="40.926838mm">
  <defs
     id="defs6475" />
  <metadata
     id="metadata6478">
    <rdf:RDF>
      <cc:Work
         rdf:about="">
        <dc:format>image/svg+xml</dc:format>
        <dc:type
           rdf:resource="http://purl.org/dc/dcmitype/StillImage" />
        <dc:title></dc:title>
      </cc:Work>
    </rdf:RDF>
  </metadata>
  <g
     transform="translate(-48.36991,-43.209151)"
     id="layer1">
    <g
       id="g6321"
       transform="matrix(0.35277777,0,0,-0.35277777,-17.20623,149.07253)">
      <g
         id="g228"
         transform="translate(285.26647,284.24553)">
        <path
           d="M 0,0 -3.436,2.049 3.098,13.005 6.533,10.957 Z"
           style="fill:#231f20;fill-opacity:1;fill-rule:nonzero;stroke:none"
           id="path230" />
      </g>
      <g
         id="g232"
         transform="translate(289.76257,269.89693)">
        <path
           d="M 0,0 -1.596,3.668 7.705,7.712 9.301,4.044 Z"
           style="fill:#231f20;fill-opacity:1;fill-rule:nonzero;stroke:none"
           id="path234" />
      </g>
      <g
         id="g236"
         transform="translate(297.46857,250.01503)">
        <path
           d="m 0,0 -9.302,4.044 1.596,3.668 9.3,-4.044 z"
           style="fill:#231f20;fill-opacity:1;fill-rule:nonzero;stroke:none"
           id="path238" />
      </g>
      <g
         id="g240"
         transform="translate(288.36407,230.37153)">
        <path
           d="M 0,0 -6.533,10.959 -3.098,13.006 3.436,2.049 Z"
           style="fill:#231f20;fill-opacity:1;fill-rule:nonzero;stroke:none"
           id="path242" />
      </g>
      <g
         id="g244"
         transform="translate(221.49647,250.30413)">
        <path
           d="M 0,0 C 0,0 -7.289,0.186 -14.682,0.187 -21.767,0.431 -28.838,-0.09 -28.838,-0.09 v 25.375 c 0,0 5.602,-0.143 12.706,-0.143 C -9.293,25.181 0,25.365 0,25.365 Z"
           style="fill:#f05727;fill-opacity:1;fill-rule:nonzero;stroke:none"
           id="path246" />
      </g>
      <g
         id="g248"
         transform="translate(193.00227,275.23673)">
        <path
           d="m 0,0 v -24.653 c 1.208,0.079 5.226,0.316 9.814,0.316 1.398,0 2.749,-0.02 4.01,-0.065 6.388,0 12.777,-0.141 14.325,-0.179 V 0.082 C 26.389,0.048 18.38,-0.101 12.364,-0.134 6.339,-0.134 1.339,-0.031 0,0 M -0.688,-25.393 V 0.705 L -0.335,0.696 C -0.28,0.695 5.344,0.554 12.362,0.554 19.119,0.593 28.393,0.775 28.486,0.778 l 0.351,0.006 v -26.071 l -0.352,0.009 c -0.073,0.002 -7.369,0.187 -14.673,0.189 -1.266,0.043 -2.607,0.064 -3.998,0.064 -5.447,0 -10.087,-0.337 -10.133,-0.34 z"
           style="fill:#f05727;fill-opacity:1;fill-rule:nonzero;stroke:none"
           id="path250" />
      </g>
      <path
         d="m 273.60397,235.24113 h -5.117 v 57.04 h 5.117 z"
         style="fill:#e6e4e5;fill-opacity:1;fill-rule:nonzero;stroke:none"
         id="path252" />
      <path
         d="m 268.74797,235.50313 h 4.595 v 56.514 h -4.595 z m 5.118,-0.526 h -5.641 v 57.567 h 5.641 z"
         style="fill:#e6e4e5;fill-opacity:1;fill-rule:nonzero;stroke:none"
         id="path254" />
      <g
         id="g256"
         transform="translate(217.11457,213.52483)">
        <path
           d="M 0,0 H -15.812 L -20.379,36.779 0,36.541 Z"
           style="fill:#242e3c;fill-opacity:1;fill-rule:nonzero;stroke:none"
           id="path258" />
      </g>
      <g
         id="g260"
         transform="translate(201.60727,213.86953)">
        <path
           d="M 0,0 H 15.162 V 35.855 L -4.482,36.086 Z M 15.851,-0.688 H -0.608 l -4.654,37.471 21.113,-0.246 z"
           style="fill:#242e3c;fill-opacity:1;fill-rule:nonzero;stroke:none"
           id="path262" />
      </g>
      <g
         id="g264"
         transform="translate(273.86607,269.03903)">
        <path
           d="m 0,0 v -10.556 c 2.916,0 5.28,2.363 5.28,5.278 C 5.28,-2.363 2.916,0 0,0"
           style="fill:#f05727;fill-opacity:1;fill-rule:nonzero;stroke:none"
           id="path266" />
      </g>
      <g
         id="g268"
         transform="translate(192.54677,272.96623)">
        <path
           d="M 0,0 C -2.114,0 -3.827,-1.713 -3.827,-3.827 V -16.22 c 0,-2.114 1.713,-3.829 3.827,-3.829 z"
           style="fill:#231f20;fill-opacity:1;fill-rule:nonzero;stroke:none"
           id="path270" />
      </g>
      <g
         id="g272"
         transform="translate(221.49647,275.70353)">
        <path
           d="m 0,0 v -25.396 c 12.794,-0.256 32.257,-5.871 46.551,-14.89 V -11.948 16.39 C 32.877,7.034 12.344,1.164 0,0"
           style="fill:#242e3c;fill-opacity:1;fill-rule:nonzero;stroke:none"
           id="path274" />
      </g>
      <g
         id="g276"
         transform="translate(221.66737,250.47603)">
        <path
           d="m 0,0 c 11.755,-0.282 31.29,-5.418 46.209,-14.748 v 56.04 C 32.883,32.278 12.964,26.326 0,25.071 Z m 46.553,-15.371 -0.264,0.168 C 31.319,-5.759 11.583,-0.577 -0.176,-0.34 l -0.168,0.003 v 25.721 l 0.156,0.014 c 13.003,1.229 33.141,7.242 46.472,16.362 l 0.269,0.183 z"
           style="fill:#242e3c;fill-opacity:1;fill-rule:nonzero;stroke:none"
           id="path278" />
      </g>
    </g>
  </g>
</svg>
