<?xml version="1.0" encoding="iso-8859-1"?>
<!-- Generator: Adobe Illustrator 19.0.0, SVG Export Plug-In . SVG Version: 6.00 Build 0)  -->
<svg version="1.1" id="Layer_1" xmlns="http://www.w3.org/2000/svg" xmlns:xlink="http://www.w3.org/1999/xlink" x="0px" y="0px"
	 viewBox="0 0 512 512" style="enable-background:new 0 0 512 512;" xml:space="preserve">
<g>
	<path style="fill:#BFA380;" d="M150.069,304.552h-17.655c-9.71,0-17.655-7.945-17.655-17.655v-52.966
		c0-9.71,7.945-17.655,17.655-17.655h17.655c9.71,0,17.655,7.945,17.655,17.655v52.966
		C167.724,296.607,159.779,304.552,150.069,304.552"/>
	<path style="fill:#BFA380;" d="M361.931,304.552h17.655c9.71,0,17.655-7.945,17.655-17.655v-52.966
		c0-9.71-7.945-17.655-17.655-17.655h-17.655c-9.71,0-17.655,7.945-17.655,17.655v52.966
		C344.276,296.607,352.221,304.552,361.931,304.552"/>
</g>
<path style="fill:#CCD0D2;" d="M150.069,136.828h211.862V83.862h-17.655v8.828c0,5.297-3.531,8.828-8.828,8.828H176.552
	c-5.297,0-8.828-3.531-8.828-8.828v-8.828h-17.655V136.828z M370.759,154.483H141.241c-5.297,0-8.828-3.531-8.828-8.828V75.034
	c0-5.297,3.531-8.828,8.828-8.828h35.31c5.297,0,8.828,3.531,8.828,8.828v8.828h141.241v-8.828c0-5.297,3.531-8.828,8.828-8.828
	h35.31c5.297,0,8.828,3.531,8.828,8.828v70.621C379.586,150.952,376.055,154.483,370.759,154.483L370.759,154.483z"/>
<path style="fill:#724530;" d="M389.297,136.828H122.703c-60.028,0-112.11,44.138-120.938,104.166L0,251.586
	c0,5.297,3.531,8.828,8.828,8.828h105.931v-26.483c0-9.71,7.945-17.655,17.655-17.655h17.655c9.71,0,17.655,7.945,17.655,17.655
	v26.483h176.552v-26.483c0-9.71,7.945-17.655,17.655-17.655h17.655c9.71,0,17.655,7.945,17.655,17.655v26.483h105.931
	c5.297,0,8.828-3.531,8.828-8.828l-1.766-10.593C501.407,180.966,449.324,136.828,389.297,136.828"/>
<path style="fill:#45291E;" d="M397.241,260.414v26.483c0,9.71-7.945,17.655-17.655,17.655h-17.655
	c-9.71,0-17.655-7.945-17.655-17.655v-26.483H167.724v26.483c0,9.71-7.945,17.655-17.655,17.655h-17.655
	c-9.71,0-17.655-7.945-17.655-17.655v-26.483H17.655v185.379c0,9.71,7.945,17.655,17.655,17.655H476.69
	c9.71,0,17.655-7.945,17.655-17.655V260.414H397.241z"/>
<g>
	<path style="fill:#BFA380;" d="M70.621,463.448H35.31c-9.71,0-17.655-7.945-17.655-17.655v-17.655h35.31
		c9.71,0,17.655,7.945,17.655,17.655V463.448z"/>
	<path style="fill:#BFA380;" d="M441.379,463.448h35.31c9.71,0,17.655-7.945,17.655-17.655v-17.655h-35.31
		c-9.71,0-17.655,7.945-17.655,17.655V463.448z"/>
</g>
<g>
	<path style="fill:#724530;" d="M406.069,436.966H105.931c-5.297,0-8.828-3.531-8.828-8.828s3.531-8.828,8.828-8.828h300.138
		c5.297,0,8.828,3.531,8.828,8.828S411.366,436.966,406.069,436.966"/>
	<path style="fill:#724530;" d="M406.069,401.655H105.931c-5.297,0-8.828-3.531-8.828-8.828s3.531-8.828,8.828-8.828h300.138
		c5.297,0,8.828,3.531,8.828,8.828S411.366,401.655,406.069,401.655"/>
</g>
<path style="fill:#67544D;" d="M167.724,101.517h176.552V48.552H167.724V101.517z"/>
<g>
</g>
<g>
</g>
<g>
</g>
<g>
</g>
<g>
</g>
<g>
</g>
<g>
</g>
<g>
</g>
<g>
</g>
<g>
</g>
<g>
</g>
<g>
</g>
<g>
</g>
<g>
</g>
<g>
</g>
</svg>
